<?xml version="1.0" encoding="utf-8"?>
<svg version="1.1" xmlns="http://www.w3.org/2000/svg" xmlns:xlink="http://www.w3.org/1999/xlink" x="0px" y="0px" viewBox="0 0 65 65" xml:space="preserve">
<path fill="#1B365D" d="M60.9,4.5c-1.4-2.8-4.3-4.6-7.5-4.5C39.5,0,25.5,0,11.6,0c-0.5,0-1.1,0-1.6,0.1c-3.2,0.6-5.8,3-6.4,6.1
	C3.4,6.8,3.3,7.5,3.3,8.1C3.1,9.6,3.4,11,4.1,12.3c1.2,2.3,3.5,3.7,6.1,3.7c2.4,0.1,4.9,0,7.4,0c0.4,0,0.4,0,0.4,0.4v41
	c0,0.1,0,0.3,0,0.4c0,0.5,0.4,0.9,0.9,0.9c0.1,0,0.3,0,0.4,0h24.4c0,0.1,0,0.2-0.1,0.3c-0.4,0.8-0.9,1.7-1.3,2.5
	c-0.2,0.3-0.2,0.6-0.1,0.9v0.1c0.2,0.5,0.8,0.8,1.4,0.6c0.4-0.1,0.7-0.3,1.1-0.4c0.3-0.1,0.3-0.1,0.4,0.2c0,0.3,0.1,0.7,0.2,1.1
	c0,0.3,0.2,0.5,0.5,0.7c0.5,0.3,1.2,0.1,1.5-0.4c0.2-0.4,0.4-0.8,0.6-1.2c0.4-0.8,0.9-1.6,1.3-2.4c0-0.1,0.1-0.2,0.2-0.1
	c0.5,0.3,1.2,0.3,1.7,0c0.1-0.1,0.1,0,0.2,0.1c0.1,0.3,0.3,0.7,0.5,1c0.4,0.8,0.9,1.7,1.3,2.5c0.2,0.3,0.5,0.6,0.9,0.6
	c0.6,0.1,1.1-0.3,1.2-0.8c0.1-0.4,0.2-0.8,0.3-1.2c0-0.2,0-0.2,0.2-0.1c0.4,0.2,0.8,0.4,1.2,0.5c0,0.1,0.1,0.1,0.2,0.1
	c0.5,0.1,1.1-0.3,1.2-0.9c0-0.3-0.1-0.6-0.2-0.8c-0.4-0.8-0.9-1.7-1.3-2.5c0-0.1-0.1-0.2-0.1-0.3c0.1,0,0.2,0,0.3,0h3.6
	c0.1,0,0.2,0,0.3,0c0.5,0,0.9-0.4,0.9-0.9c0-0.2,0-0.3,0-0.4v-49c0-0.1,0-0.2,0-0.3C61.8,6.9,61.5,5.6,60.9,4.5z M18,14
	c0,0.3,0,0.3-0.2,0.3c-1,0-2,0-3,0c-0.1-0.1-0.1-0.1-0.2-0.1c0.6-0.6,1-1.4,1.3-2.2c0.7-2,0-4.3-1.7-5.6c-0.8-0.6-1.8-1-2.9-1
	C9.2,5.4,7.5,6.9,7.2,9C7.1,9.4,7.4,9.9,8,10c0.1,0,0.2,0,0.2,0c1,0,2,0,3,0H14c0.3,0,0.3,0,0.3,0.3c0,1.2-0.6,2.2-1.5,2.9
	c-1,0.9-2.4,1.2-3.7,0.8c-2-0.4-3.6-2.1-4-4.1C5,9.5,5,8.9,5,8.4C5,8,5.1,7.5,5.1,7.1c0.5-2.5,2.4-4.5,4.9-5
	c3.4-0.8,6.9,1.3,7.7,4.8V7C17.9,7.4,18,7.8,18,8.2V14z M13.4,8.2H9.5c0.3-0.5,0.8-0.9,1.4-0.9C11.9,7.1,12.8,7.5,13.4,8.2z
	 M46.4,61.7c0-0.7-0.6-1.2-1.2-1.1c-0.2,0-0.4,0.1-0.5,0.1c0-0.1,0-0.1,0.1-0.2c0.1-0.3,0.3-0.6,0.4-0.9c0.1-0.1,0.1-0.2,0.2-0.1
	c0.5,0.3,1,0.3,1.5,0.2c0.2,0,0.4-0.1,0.6-0.1C47.2,60.3,46.8,60.9,46.4,61.7z M53.7,61.6l-1.1-2.1c0.7,0.4,1.6,0.3,2.3-0.1l0.6,1.2
	C54.4,60.4,54,60.6,53.7,61.6z M55.3,55c-0.8,0.3-1.4,1-1.4,1.9c0,0.3,0,0.6-0.1,0.9c-0.3,0-0.6-0.1-0.9-0.2c-0.8-0.3-1.7,0-2.2,0.7
	c-0.2,0.2-0.4,0.5-0.6,0.7c-0.2-0.3-0.5-0.5-0.7-0.8c-0.2-0.3-0.6-0.6-1-0.7c-0.3-0.1-0.7-0.1-1.1,0c-0.3,0.1-0.6,0.1-0.8,0.2
	c-0.2,0-0.2,0-0.2-0.2c0-0.3,0-0.7-0.1-1c-0.1-0.7-0.5-1.3-1.2-1.5c-0.3,0-0.7-0.2-1-0.3c0.2-0.3,0.4-0.6,0.5-0.9
	c0.5-0.7,0.5-1.6,0-2.3c-0.1-0.2-0.3-0.4-0.4-0.6c-0.1-0.2-0.1-0.2,0.1-0.3c0.2-0.1,0.5-0.2,0.8-0.3c0.8-0.3,1.3-1,1.3-1.8
	c0-0.3,0-0.5,0.1-0.8c0-0.2,0-0.2,0.2-0.2c0.3,0.1,0.5,0.1,0.8,0.2c0.8,0.2,1.6,0,2.1-0.7c0.2-0.2,0.4-0.4,0.6-0.7
	c0.1-0.1,0.1-0.1,0.2,0c0.2,0.2,0.4,0.5,0.6,0.7c0.5,0.6,1.3,0.9,2,0.7c0.3-0.1,0.5-0.1,0.8-0.2c0.2,0,0.2,0,0.2,0.2
	c0,0.3,0,0.6,0.1,0.8c0,0.7,0.5,1.4,1.2,1.7c0.3,0.1,0.6,0.3,0.9,0.4c0.1,0.1,0.1,0.1,0.1,0.2c-0.1,0.2-0.3,0.5-0.4,0.7
	c-0.5,0.7-0.5,1.6,0,2.3c0.1,0.2,0.3,0.5,0.4,0.7c0.1,0.1,0,0.2-0.1,0.2C55.8,54.8,55.6,54.9,55.3,55z M60,8.6c0,16,0,32,0,47.9
	c0,0.4,0,0.4-0.4,0.4h-3.7c0.3-0.1,0.6-0.2,0.8-0.3c1-0.4,1.6-1.5,1.2-2.5c-0.1-0.2-0.1-0.3-0.2-0.4c-0.1-0.2-0.3-0.4-0.4-0.7
	c-0.1-0.1-0.1-0.3,0-0.4c0.2-0.2,0.3-0.5,0.4-0.7c0.6-0.9,0.3-2.1-0.6-2.7C57,49.1,56.9,49,56.8,49c-0.2-0.1-0.5-0.2-0.7-0.3
	c-0.2,0-0.3-0.2-0.3-0.3c0-0.3,0-0.7-0.1-1c-0.2-1.1-1.1-1.8-2.2-1.6c-0.1,0-0.1,0-0.2,0c-0.3,0.1-0.6,0.1-0.9,0.2
	c-0.1,0-0.3,0-0.4-0.1c-0.2-0.2-0.4-0.4-0.5-0.6c-0.7-0.8-1.9-1-2.7-0.3c-0.1,0.1-0.2,0.2-0.3,0.3c-0.2,0.2-0.4,0.4-0.6,0.7
	c-0.1,0.1-0.2,0.1-0.3,0.1c-0.3-0.1-0.7-0.2-1-0.2c-1-0.2-2,0.5-2.2,1.5c-0.1,0.4-0.1,0.7-0.1,1.1c0,0.2-0.1,0.3-0.3,0.3
	c-0.3,0.1-0.5,0.2-0.8,0.3c-1,0.4-1.5,1.5-1.1,2.5c0,0.1,0.1,0.2,0.2,0.3c0.1,0.3,0.3,0.5,0.5,0.7c0.1,0.1,0.1,0.2,0,0.3
	c-0.2,0.3-0.3,0.5-0.5,0.8c-0.6,0.9-0.3,2.1,0.6,2.7c0.1,0.1,0.2,0.1,0.3,0.2c0.3,0.1,0.6,0.3,1,0.4c0,0.1-0.1,0.1-0.2,0.1
	s-0.2,0-0.3,0H20.3c-0.5,0-0.4,0.1-0.4-0.4c0-16,0-32,0-48c0.1-2.5-1-4.8-2.9-6.5c0,0-0.1-0.1-0.1-0.2c0.1,0,0.2,0,0.3,0
	c12.1,0,24.2,0,36.2,0c2.3-0.2,4.5,1,5.7,3C59.7,6,60,7,60,8.2C60,8.3,60,8.5,60,8.6z M40.2,32H25.3c-0.1,0-0.3,0-0.4,0
	c-0.5-0.1-0.9-0.5-0.8-1c0-0.4,0.4-0.7,0.8-0.8c0.1,0,0.3,0,0.4,0c10,0,20,0,30,0c0.1,0,0.3,0,0.4,0c0.5,0.1,0.8,0.6,0.7,1.1
	C56.3,31.7,56,32,55.7,32c-0.1,0-0.3,0-0.4,0H40.2z M40.3,12.2h14.9c0.1,0,0.2,0,0.3,0c0.5,0,0.9,0.4,0.9,0.9s-0.3,0.9-0.8,1
	c-0.1,0-0.2,0-0.3,0H25.2c-0.1,0-0.3,0-0.4,0c-0.5-0.1-0.8-0.5-0.7-1c0-0.5,0.4-0.8,0.9-0.8c0.1,0,0.2,0,0.3,0L40.3,12.2z
	 M40.3,21.1h14.9c0.1,0,0.3,0,0.4,0c0.5,0.1,0.9,0.5,0.8,1.1C56.3,22.6,56,23,55.6,23c-0.1,0-0.2,0-0.3,0h-30c-0.1,0-0.2,0-0.3,0
	c-0.5-0.1-0.9-0.5-0.8-1c0.1-0.4,0.4-0.8,0.8-0.8c0.1,0,0.3,0,0.4,0h14.9V21.1z M40.2,40.9H25.4c-0.1,0-0.2,0-0.4,0
	c-0.5,0-0.9-0.4-0.9-0.9s0.4-0.9,0.9-0.9c0.1,0,0.2,0,0.3,0h29.9c0.1,0,0.2,0,0.3,0c0.5,0,0.9,0.4,0.9,0.9s-0.4,0.9-0.9,0.9
	c-0.1,0-0.2,0-0.4,0H40.2z"/>
<path fill="#41748e" d="M50.1,47.7c-2.8,0-5,2.2-5,5s2.2,5,5,5c2.8,0,5-2.2,5-5S52.9,47.7,50.1,47.7z M50.1,56.2
	c-2,0-3.5-1.5-3.5-3.5c0-1.9,1.6-3.5,3.5-3.5c1.9,0,3.5,1.6,3.5,3.5C53.6,54.6,52,56.2,50.1,56.2z"/>
</svg>
