<?xml version="1.0" encoding="utf-8"?>
<svg version="1.1" xmlns="http://www.w3.org/2000/svg" xmlns:xlink="http://www.w3.org/1999/xlink" x="0px" y="0px" viewBox="0 0 65 65" xml:space="preserve">
	<path fill="#1B365D" d="M42.4,21.1c-1-0.9-2.1-1.7-3.2-2.5c-2.8-1.8-6-3.1-9.3-3.6c-1.8-0.3-3.7-0.4-5.5-0.3
		C11.3,15.8,1.2,27.1,2,40.4c0.6,10.5,7.9,19.3,18,21.9c1.9,0.5,3.8,0.7,5.7,0.8c13.3,0.1,24.2-10.6,24.4-23.8
		c0.1-4.9-1.3-9.6-4-13.6C46,25.5,46,25.4,46,25.3l1.5-1c0.1,0,0.1,0.1,0.2,0.2c1.9,2.8,3.2,6,3.9,9.4c0.4,2.1,0.6,4.3,0.5,6.5
		C51.5,51.5,43.9,61,33.2,64c-1.7,0.5-3.5,0.8-5.3,0.9c-14.4,0.9-26.8-10-27.7-24.3c-0.1-0.9-0.1-1.8-0.1-2.8
		c0.5-12.2,9.5-22.2,21.3-24.4c2-0.4,4-0.5,6-0.4c6,0.3,11.7,2.7,16,6.7c0.1,0.1,0.1,0.1,0.2,0.2c0,0.1,0,0.1-0.1,0.2
		c-0.3,0.3-0.7,0.7-1,1C42.6,21.1,42.5,21.2,42.4,21.1z M37.1,26.4c-1.2-1.1-2.6-2-4.1-2.6c-8.4-3.7-18.1,0.1-21.9,8.5
		c-3.7,8.4,0.1,18.1,8.5,21.9c1.6,0.7,3.3,1.1,5,1.3c5,0.5,10-1.3,13.4-4.9c2.4-2.4,4-5.5,4.5-8.8c0.6-3.6,0.1-7.3-1.6-10.5L40.8,31
		c0.5-0.3,1-0.5,1.5-0.8h0.1l0,0c0,0.1,0.1,0.1,0.1,0.2c4.7,9.1,1.2,20.1-7.8,24.9s-20.1,1.2-24.9-7.8s-1.2-20.1,7.8-24.9
		c6.8-3.5,14.9-2.6,20.6,2.5l0.1,0.1c0,0.1,0,0.2-0.1,0.2C37.9,25.7,37.6,26,37.1,26.4C37.3,26.4,37.2,26.5,37.1,26.4z M32.7,30.9
		c-0.4,0.4-0.7,0.7-1.1,1.1c-0.1,0.1-0.1,0.1-0.2,0.2c-1-0.8-2.2-1.3-3.4-1.6c-4.6-1-9.2,2-10.2,6.6c-1,4.6,2,9.2,6.6,10.2
		c4.6,1,9.2-2,10.2-6.6v-0.1c0.3-1.3,0.2-2.7-0.1-4c0-0.1,0-0.1,0-0.2c0-0.1,0-0.2,0.1-0.2c0.5-0.2,1-0.3,1.5-0.5
		c0.1,0,0.1,0,0.2,0.1c0.2,0.5,0.3,1,0.3,1.6c0.7,5.5-3,10.6-8.4,11.6c-5.7,1-11.1-2.7-12.1-8.4c-1-5.5,2.6-10.9,8.1-12
		c3-0.7,6.1,0,8.5,1.9C32.6,30.8,32.6,30.8,32.7,30.9z"/>
	<path fill="#41748e" d="M64.1,9.4c-2.3-0.4-4.6-0.9-6.9-1.3C56.8,8,56.8,8,56.7,7.6c-0.4-2.3-0.9-4.6-1.3-6.9
		c0-0.2-0.1-0.4-0.3-0.6c-0.4-0.3-1-0.3-1.4,0.1c-3.2,3.2-6.3,6.3-9.5,9.5c-0.3,0.3-0.4,0.7-0.3,1c0.3,1.5,0.6,3,0.9,4.5
		c0.1,0.9,0.3,1.9,0.5,2.8c0,0.1,0,0.2-0.1,0.3c-0.6,0.5-1.1,1-1.6,1.5l-1.2,1.2c0,0.1,0,0.1-0.1,0.1c0,0.2-0.1,0.2-0.2,0.3
		c-1.2,1.2-2.4,2.4-3.6,3.6c-0.1,0.1-0.1,0.1-0.2,0.2l-1.1,1.2c-0.1,0-0.1,0.1-0.2,0.1c0,0.2-0.1,0.2,0,0.3c-1.3,1.3-2.7,2.7-4,4
		c0,0.1-0.1,0.1-0.2,0.2h-0.1c-0.4,0.4-0.8,0.8-1.2,1.2c0,0.1,0,0.2-0.1,0.2c-1.3,1.3-2.6,2.6-3.9,3.9c-0.1,0.1-0.2,0.2-0.3,0.1
		c-0.4-0.2-0.9-0.2-1.3-0.2c-0.2,0-0.4,0-0.6,0.1c-1.5,0.4-2.3,2-1.8,3.5c0.4,1.5,2,2.3,3.5,1.8c1.5-0.4,2.3-2,1.8-3.5
		c-0.1-0.2-0.1-0.5,0.1-0.6c1.8-1.8,3.7-3.7,5.5-5.5l12-12c0.1-0.1,0.1-0.1,0.2-0.2c0-0.1,0.2-0.1,0.3-0.1c0.4,0.1,0.9,0.2,1.3,0.3
		c1.9,0.4,3.9,0.7,5.8,1.1c0.4,0.1,0.9,0,1.3-0.6c3.1-3.1,6.1-6.1,9.2-9.2c0,0,0.1-0.1,0.2-0.2c0.1-0.2,0.2-0.3,0.2-0.5
		c0-0.1,0-0.1,0-0.1C65,9.9,64.6,9.5,64.1,9.4z M61.8,11.7c-1.3,1.3-2.7,2.7-4,4c-1.1,1.1-2.3,2.3-3.4,3.4c-0.3,0-0.5,0-0.6,0
		c-2.1-0.4-4.3-0.8-6.4-1.2c-0.1,0-0.3-0.1-0.3-0.3c-0.4-2.2-0.8-4.3-1.2-6.5c0-0.1,0-0.3,0.1-0.3c0.6-0.6,1.3-1.2,1.9-1.9
		c1.9-1.9,3.7-3.7,5.6-5.6c0.1-0.1,0.2-0.1,0.3-0.2c0.3,1.7,0.7,3.4,1,5.2c0.1,0.3,0.1,0.6,0.2,1c0.1,0.5,0.4,0.8,0.9,0.9
		c1.6,0.3,3.2,0.6,4.7,0.9l1.4,0.3C62,11.5,61.9,11.6,61.8,11.7z"/>
</svg>